# xmcd CD database file
#
# Track frame offsets:
#	150
#	22041
#	41267
#	69388
#	96865
#	121613
#	146056
#	168836
#	191780
#	206142
#	226270
#
# Disc length: 3123 seconds
#
# Revision: 0
# Processed by: cddbd v1.4PL0 Copyright (c) Steve Scherf et al.
# Submitted via: CDex 1.40Release
#
DISCID=920c310b
DTITLE=Bob Brozman and Jeff Lang with Angus Diggs - Rolling Through This World
DYEAR=2002
DGENRE=Blues
TTITLE0=61 Highway
TTITLE1=Danville Girl
TTITLE2=Rolling Through This World
TTITLE3=The Changeling
TTITLE4=Cypress Grove
TTITLE5=Black Back Train
TTITLE6=Get Luckly
TTITLE7=Telephone Arguing Blues
TTITLE8=Rooster Tail
TTITLE9=Plucked Pigeon Soup-Hop
TTITLE10=Wipe It Off
EXTD=YEAR: 2002 ID3G: 0
EXTT0=
EXTT1=
EXTT2=
EXTT3=
EXTT4=
EXTT5=
EXTT6=
EXTT7=
EXTT8=
EXTT9=
EXTT10=
PLAYORDER=
